<?xml version="1.0" standalone="no"?>
<!DOCTYPE svg PUBLIC "-//W3C//DTD SVG 20010904//EN"
 "http://www.w3.org/TR/2001/REC-SVG-20010904/DTD/svg10.dtd">
<svg version="1.0" xmlns="http://www.w3.org/2000/svg"
 width="1000.000000pt" height="1000.000000pt" viewBox="0 0 1000.000000 1000.000000"
 preserveAspectRatio="xMidYMid meet">
<metadata>
Created by potrace 1.14, written by Peter Selinger 2001-2017
</metadata>
<g transform="translate(0.000000,1000.000000) scale(0.100000,-0.100000)"
fill="#000000" stroke="none">
<path d="M4885 9633 c-75 -3 -329 -22 -367 -28 -13 -2 -59 -9 -103 -15 -399
-55 -849 -194 -1225 -378 -1098 -537 -1883 -1516 -2146 -2677 -17 -71 -21 -95
-29 -147 l-7 -45 -161 -37 c-89 -20 -174 -42 -189 -48 -42 -16 -42 -15 -22
-248 3 -36 7 -94 9 -130 5 -67 12 -165 20 -260 7 -91 15 -201 20 -270 10 -142
16 -227 20 -275 6 -64 21 -262 24 -317 1 -20 47 -65 92 -89 26 -15 35 -15 76
-3 68 21 69 20 71 -43 3 -92 9 -108 60 -144 63 -46 72 -49 110 -33 29 12 34
12 39 -4 109 -315 289 -658 502 -952 80 -111 80 -110 135 -178 20 -24 36 -45
36 -47 0 -2 -45 -31 -101 -65 -226 -139 -462 -347 -588 -518 -57 -78 -150
-249 -163 -300 -4 -12 -7 -26 -8 -30 -1 -4 -6 -14 -10 -22 -4 -8 -11 -31 -14
-50 -3 -19 -10 -57 -15 -85 -10 -52 -8 -244 4 -305 12 -62 65 -212 98 -274
274 -527 1027 -979 2052 -1235 204 -51 529 -114 695 -136 25 -3 56 -8 70 -10
57 -10 253 -33 350 -40 41 -4 89 -8 105 -10 17 -2 86 -7 155 -10 69 -4 148 -8
175 -11 64 -5 707 -5 760 0 22 2 94 7 160 10 66 4 140 9 165 11 25 3 97 10
160 16 1037 98 2009 415 2597 848 104 77 142 109 248 216 133 134 201 225 274
370 270 539 7 1124 -706 1565 l-102 63 32 41 c17 23 34 43 37 46 41 36 252
350 343 510 27 48 157 307 157 314 0 2 13 33 29 68 34 75 99 249 116 308 47
163 34 148 121 135 38 -6 43 -4 62 22 21 29 24 40 39 132 4 25 8 49 9 54 1 4
2 11 3 17 0 6 19 7 44 4 65 -9 86 24 101 161 17 155 20 162 55 157 17 -2 34 2
44 12 27 27 41 130 38 284 -1 38 -5 45 -36 63 -19 12 -33 24 -31 27 2 4 7 30
10 57 4 28 9 66 11 85 3 19 7 58 10 85 3 28 8 61 10 75 21 130 22 178 4 195
-8 7 -36 15 -64 18 -215 24 -261 30 -267 36 -3 3 -9 26 -13 51 -3 25 -10 70
-15 100 -5 30 -12 71 -15 90 -27 160 -126 518 -171 617 -8 17 -14 34 -14 38 0
28 -170 391 -237 503 -24 41 -43 76 -43 78 0 16 -240 366 -300 438 -10 12 -44
53 -76 91 -751 900 -1896 1440 -3094 1458 -85 1 -186 1 -225 0z"/>
</g>
</svg>
